<svg width="1541" height="149" viewBox="0 0 1541 149" fill="none" xmlns="http://www.w3.org/2000/svg">
<rect width="1541" height="149" fill="#8E76BF"/>
<g filter="url(#filter0_d)">
<path d="M226.061 39.864C226.061 33.768 222.125 30.36 215.213 30.36H206.189V63H210.701V49.464H213.293L223.373 63H228.461V62.376L218.237 49.032C223.325 48.168 226.061 44.376 226.061 39.864ZM221.453 39.816C221.453 44.04 219.005 45.72 215.501 45.72H210.701V34.152H215.021C218.861 34.152 221.453 35.928 221.453 39.816ZM251.192 52.44C251.192 45.768 247.16 40.824 240.92 40.824C235.256 40.824 231.032 45.72 231.032 52.44C231.032 59.016 235.448 63.672 241.112 63.672C246.68 63.672 251.192 59.016 251.192 52.44ZM246.776 52.392C246.776 57.144 244.328 60.12 241.112 60.12C237.656 60.12 235.448 57.048 235.448 52.392C235.448 47.784 237.656 44.376 240.92 44.376C244.52 44.376 246.776 47.64 246.776 52.392ZM256.243 30.36V63H260.563V29.784L256.243 30.36ZM283.337 53.448C283.769 52.104 283.817 50.424 283.817 49.464C283.817 44.664 280.649 40.824 275.513 40.824C269.897 40.824 265.625 45.768 265.625 52.824C265.625 60.504 270.185 63.672 275.369 63.672C278.345 63.672 280.937 62.712 282.521 61.224L281.705 57.768H281.561C280.169 59.112 277.865 60.072 275.993 60.072C272.729 60.072 270.041 58.488 270.041 53.448H283.337ZM270.233 50.376C270.329 46.968 272.441 44.376 275.417 44.376C277.865 44.376 280.121 46.584 279.545 50.376H270.233Z" fill="white"/>
</g>
<g filter="url(#filter1_d)">
<path d="M716.326 34.296V30.36H690.694V34.296H701.254V63H705.766V34.296H716.326ZM719.821 41.832V63H724.141V41.256L719.821 41.832ZM719.101 33.144C719.101 34.728 720.397 36.024 721.981 36.024C723.565 36.024 724.861 34.728 724.861 33.144C724.861 31.56 723.565 30.264 721.981 30.264C720.397 30.264 719.101 31.56 719.101 33.144ZM746.723 43.944C745.523 41.976 743.507 40.824 741.011 40.824C738.275 40.824 736.019 42.024 734.291 43.464H734.051L733.715 41.496H730.163V63H734.483V47.304C735.731 45.72 737.507 44.664 739.283 44.664C741.059 44.664 743.363 45.48 743.363 48.648V63H747.683V47.304C748.787 46.008 750.659 44.664 752.483 44.664C754.451 44.664 756.563 45.48 756.563 48.648V63H760.883V47.832C760.883 42.84 757.427 40.824 754.211 40.824C751.475 40.824 749.507 41.784 746.963 43.944H746.723ZM782.915 53.448C783.347 52.104 783.395 50.424 783.395 49.464C783.395 44.664 780.227 40.824 775.091 40.824C769.475 40.824 765.203 45.768 765.203 52.824C765.203 60.504 769.763 63.672 774.947 63.672C777.923 63.672 780.515 62.712 782.099 61.224L781.283 57.768H781.139C779.747 59.112 777.443 60.072 775.571 60.072C772.307 60.072 769.619 58.488 769.619 53.448H782.915ZM769.811 50.376C769.907 46.968 772.019 44.376 774.995 44.376C777.443 44.376 779.699 46.584 779.123 50.376H769.811ZM788.493 30.36V63H792.813V29.784L788.493 30.36ZM799.555 41.832V63H803.875V41.256L799.555 41.832ZM798.835 33.144C798.835 34.728 800.131 36.024 801.715 36.024C803.299 36.024 804.595 34.728 804.595 33.144C804.595 31.56 803.299 30.264 801.715 30.264C800.131 30.264 798.835 31.56 798.835 33.144ZM813.786 43.464L813.45 41.496H809.898V63H814.218V47.4C815.322 45.864 817.386 44.664 819.354 44.664C821.37 44.664 823.338 45.48 823.338 49.128V63H827.658V48.024C827.658 43.032 824.826 40.824 821.034 40.824C818.346 40.824 816.042 41.784 814.026 43.464H813.786ZM849.712 53.448C850.144 52.104 850.192 50.424 850.192 49.464C850.192 44.664 847.024 40.824 841.888 40.824C836.272 40.824 832 45.768 832 52.824C832 60.504 836.56 63.672 841.744 63.672C844.72 63.672 847.312 62.712 848.896 61.224L848.08 57.768H847.936C846.544 59.112 844.24 60.072 842.368 60.072C839.104 60.072 836.416 58.488 836.416 53.448H849.712ZM836.608 50.376C836.704 46.968 838.816 44.376 841.792 44.376C844.24 44.376 846.496 46.584 845.92 50.376H836.608Z" fill="white"/>
</g>
<g filter="url(#filter2_d)">
<path d="M1283.86 33.72C1288.42 33.72 1291.83 35.688 1293.37 36.984L1294.52 33C1292.55 31.56 1288.42 29.64 1283.96 29.64C1273.93 29.64 1267.4 37.272 1267.4 47.208C1267.4 55.8 1273.73 63.72 1283.91 63.72C1289.09 63.72 1292.84 61.944 1295.91 59.064V45.576H1282.57V49.512H1291.3V57.288C1289.96 58.872 1287.37 59.64 1284.15 59.64C1277.09 59.64 1272.1 54.6 1272.1 47.016C1272.1 37.992 1277.72 33.72 1283.86 33.72ZM1321.01 52.44C1321.01 45.768 1316.98 40.824 1310.74 40.824C1305.08 40.824 1300.85 45.72 1300.85 52.44C1300.85 59.016 1305.27 63.672 1310.93 63.672C1316.5 63.672 1321.01 59.016 1321.01 52.44ZM1316.6 52.392C1316.6 57.144 1314.15 60.12 1310.93 60.12C1307.48 60.12 1305.27 57.048 1305.27 52.392C1305.27 47.784 1307.48 44.376 1310.74 44.376C1314.34 44.376 1316.6 47.64 1316.6 52.392ZM1342.35 61.032C1341.39 60.504 1340.43 59.352 1340.43 57.72V47.832C1340.43 42.84 1336.83 40.824 1333.23 40.824C1329.82 40.824 1327.27 42.024 1325.26 43.224L1326.7 46.44C1328.71 45.096 1330.54 44.328 1332.41 44.328C1334.23 44.328 1336.39 45.384 1336.39 48.552V50.664C1335.34 50.52 1333.9 50.424 1332.94 50.424C1326.31 50.424 1324.06 54.072 1324.06 57.24C1324.06 61.32 1327.18 63.672 1330.63 63.672C1333.03 63.672 1335.39 62.664 1336.87 60.696H1337.07C1337.55 62.184 1338.46 63.096 1339.42 63.72L1342.35 61.224V61.032ZM1336.39 57.336C1335.58 59.064 1333.71 60.168 1331.5 60.168C1329.63 60.168 1328.19 59.208 1328.19 57.192C1328.19 55.032 1329.87 53.496 1332.89 53.496C1334.09 53.496 1335.48 53.64 1336.39 53.784V57.336ZM1347.2 30.36V63H1351.52V29.784L1347.2 30.36Z" fill="white"/>
</g>
<g filter="url(#filter3_d)">
<path d="M40.515 100.432C40.515 97.384 38.547 95.68 35.091 95.68H30.579V112H32.835V105.232H34.131L39.171 112H41.715V111.688L36.603 105.016C39.147 104.584 40.515 102.688 40.515 100.432ZM38.211 100.408C38.211 102.52 36.987 103.36 35.235 103.36H32.835V97.576H34.995C36.915 97.576 38.211 98.464 38.211 100.408ZM51.8562 107.224C52.0722 106.552 52.0962 105.712 52.0962 105.232C52.0962 102.832 50.5122 100.912 47.9442 100.912C45.1362 100.912 43.0002 103.384 43.0002 106.912C43.0002 110.752 45.2802 112.336 47.8722 112.336C49.3602 112.336 50.6562 111.856 51.4482 111.112L51.0402 109.384H50.9682C50.2722 110.056 49.1202 110.536 48.1842 110.536C46.5522 110.536 45.2082 109.744 45.2082 107.224H51.8562ZM45.3042 105.688C45.3522 103.984 46.4082 102.688 47.8962 102.688C49.1202 102.688 50.2482 103.792 49.9602 105.688H45.3042ZM60.9088 102.304C59.9728 101.536 58.6528 100.912 57.2848 100.912C55.0768 100.912 53.8048 102.304 53.8048 103.888C53.8048 105.376 54.7168 106.12 56.5168 107.104C57.8368 107.824 59.0368 108.472 59.0368 109.336C59.0368 110.104 58.2928 110.56 57.3328 110.56C56.1568 110.56 55.2448 110.056 54.3088 109.408L53.6608 111.016C54.4528 111.736 55.8928 112.336 57.4048 112.336C59.3248 112.336 61.0768 111.328 61.0768 109.336C61.0768 107.992 60.4048 107.08 58.3888 105.904C56.9248 105.04 55.8448 104.536 55.8448 103.72C55.8448 103.168 56.3488 102.664 57.3568 102.664C58.2928 102.664 59.2048 103.096 60.2368 103.888L60.9088 102.304ZM71.5437 107.224C71.7597 106.552 71.7837 105.712 71.7837 105.232C71.7837 102.832 70.1997 100.912 67.6317 100.912C64.8237 100.912 62.6877 103.384 62.6877 106.912C62.6877 110.752 64.9677 112.336 67.5597 112.336C69.0477 112.336 70.3437 111.856 71.1357 111.112L70.7277 109.384H70.6557C69.9597 110.056 68.8077 110.536 67.8717 110.536C66.2397 110.536 64.8957 109.744 64.8957 107.224H71.5437ZM64.9917 105.688C65.0397 103.984 66.0957 102.688 67.5837 102.688C68.8077 102.688 69.9357 103.792 69.6477 105.688H64.9917ZM82.474 111.016C81.994 110.752 81.514 110.176 81.514 109.36V104.416C81.514 101.92 79.714 100.912 77.914 100.912C76.21 100.912 74.938 101.512 73.93 102.112L74.65 103.72C75.658 103.048 76.57 102.664 77.506 102.664C78.418 102.664 79.498 103.192 79.498 104.776V105.832C78.97 105.76 78.25 105.712 77.77 105.712C74.458 105.712 73.33 107.536 73.33 109.12C73.33 111.16 74.89 112.336 76.618 112.336C77.818 112.336 78.994 111.832 79.738 110.848H79.834C80.074 111.592 80.53 112.048 81.01 112.36L82.474 111.112V111.016ZM79.498 109.168C79.09 110.032 78.154 110.584 77.05 110.584C76.114 110.584 75.394 110.104 75.394 109.096C75.394 108.016 76.234 107.248 77.746 107.248C78.346 107.248 79.042 107.32 79.498 107.392V109.168ZM90.0387 101.056C88.7187 101.08 87.3267 102.184 86.7507 103.48H86.5827L86.3907 101.248H84.5427V112H86.7027V106.648C87.0867 104.872 88.4547 103.48 89.8467 103.312H90.6147V101.056H90.0387ZM99.8678 102.064C98.9078 101.344 98.0918 100.912 96.6038 100.912C93.9158 100.912 91.5158 103.456 91.5158 106.96C91.5158 110.152 93.5558 112.336 96.5078 112.336C97.7318 112.336 98.9558 111.808 99.6998 111.184L99.2198 109.504C98.5718 110.008 97.7318 110.488 96.6518 110.488C95.0198 110.488 93.7238 109.432 93.7238 106.912C93.7238 104.392 95.0678 102.736 96.7958 102.736C97.7078 102.736 98.4758 103.12 99.1478 103.72L99.8678 102.064ZM103.765 102.232V95.392L101.605 95.68V112H103.765V104.2C104.509 103.36 105.445 102.832 106.405 102.832C107.245 102.832 108.325 103.384 108.325 104.968V112H110.485V104.704C110.485 102.016 108.949 100.912 107.101 100.912C105.829 100.912 104.725 101.464 103.885 102.232H103.765ZM112.056 115.84H113.976L122.616 95.2H120.696L112.056 115.84ZM127.223 95.68H124.967V112H127.223V95.68ZM132.588 102.232L132.42 101.248H130.644V112H132.804V104.2C133.356 103.432 134.388 102.832 135.372 102.832C136.38 102.832 137.364 103.24 137.364 105.064V112H139.524V104.512C139.524 102.016 138.108 100.912 136.212 100.912C134.868 100.912 133.716 101.392 132.708 102.232H132.588ZM143.141 98.128V101.128L140.981 101.944V102.928H143.141V112H145.301V102.928H147.821V101.248H145.301V97.504L143.141 98.128ZM157.747 107.224C157.963 106.552 157.987 105.712 157.987 105.232C157.987 102.832 156.403 100.912 153.835 100.912C151.027 100.912 148.891 103.384 148.891 106.912C148.891 110.752 151.171 112.336 153.763 112.336C155.251 112.336 156.547 111.856 157.339 111.112L156.931 109.384H156.859C156.163 110.056 155.011 110.536 154.075 110.536C152.443 110.536 151.099 109.744 151.099 107.224H157.747ZM151.195 105.688C151.243 103.984 152.299 102.688 153.787 102.688C155.011 102.688 156.139 103.792 155.851 105.688H151.195ZM165.671 101.056C164.351 101.08 162.959 102.184 162.383 103.48H162.215L162.023 101.248H160.175V112H162.335V106.648C162.719 104.872 164.087 103.48 165.479 103.312H166.247V101.056H165.671ZM176.365 111.016C175.885 110.752 175.405 110.176 175.405 109.36V104.416C175.405 101.92 173.605 100.912 171.805 100.912C170.101 100.912 168.829 101.512 167.821 102.112L168.541 103.72C169.549 103.048 170.461 102.664 171.397 102.664C172.309 102.664 173.389 103.192 173.389 104.776V105.832C172.861 105.76 172.141 105.712 171.661 105.712C168.349 105.712 167.221 107.536 167.221 109.12C167.221 111.16 168.781 112.336 170.509 112.336C171.709 112.336 172.885 111.832 173.629 110.848H173.725C173.965 111.592 174.421 112.048 174.901 112.36L176.365 111.112V111.016ZM173.389 109.168C172.981 110.032 172.045 110.584 170.941 110.584C170.005 110.584 169.285 110.104 169.285 109.096C169.285 108.016 170.125 107.248 171.637 107.248C172.237 107.248 172.933 107.32 173.389 107.392V109.168ZM186.305 102.064C185.345 101.344 184.529 100.912 183.041 100.912C180.353 100.912 177.953 103.456 177.953 106.96C177.953 110.152 179.993 112.336 182.945 112.336C184.169 112.336 185.393 111.808 186.137 111.184L185.657 109.504C185.009 110.008 184.169 110.488 183.089 110.488C181.457 110.488 180.161 109.432 180.161 106.912C180.161 104.392 181.505 102.736 183.233 102.736C184.145 102.736 184.913 103.12 185.585 103.72L186.305 102.064ZM189.477 98.128V101.128L187.317 101.944V102.928H189.477V112H191.637V102.928H194.157V101.248H191.637V97.504L189.477 98.128ZM196.067 101.416V112H198.227V101.128L196.067 101.416ZM195.707 97.072C195.707 97.864 196.355 98.512 197.147 98.512C197.939 98.512 198.587 97.864 198.587 97.072C198.587 96.28 197.939 95.632 197.147 95.632C196.355 95.632 195.707 96.28 195.707 97.072ZM210.838 106.72C210.838 103.384 208.822 100.912 205.702 100.912C202.87 100.912 200.758 103.36 200.758 106.72C200.758 110.008 202.966 112.336 205.798 112.336C208.582 112.336 210.838 110.008 210.838 106.72ZM208.63 106.696C208.63 109.072 207.406 110.56 205.798 110.56C204.07 110.56 202.966 109.024 202.966 106.696C202.966 104.392 204.07 102.688 205.702 102.688C207.502 102.688 208.63 104.32 208.63 106.696ZM214.948 102.232L214.78 101.248H213.004V112H215.164V104.2C215.716 103.432 216.748 102.832 217.732 102.832C218.74 102.832 219.724 103.24 219.724 105.064V112H221.884V104.512C221.884 102.016 220.468 100.912 218.572 100.912C217.228 100.912 216.076 101.392 215.068 102.232H214.948ZM232.616 110.032V97.648H235.04C237.968 97.648 241.064 99.472 241.064 103.936C241.064 107.608 238.832 110.032 235.064 110.032H232.616ZM234.968 112C239.888 112 243.416 108.928 243.416 103.984C243.416 98.896 239.744 95.68 234.944 95.68H230.36V112H234.968ZM254.028 107.224C254.244 106.552 254.268 105.712 254.268 105.232C254.268 102.832 252.684 100.912 250.116 100.912C247.308 100.912 245.172 103.384 245.172 106.912C245.172 110.752 247.452 112.336 250.044 112.336C251.532 112.336 252.828 111.856 253.62 111.112L253.212 109.384H253.14C252.444 110.056 251.292 110.536 250.356 110.536C248.724 110.536 247.38 109.744 247.38 107.224H254.028ZM247.476 105.688C247.524 103.984 248.58 102.688 250.068 102.688C251.292 102.688 252.42 103.792 252.132 105.688H247.476ZM263.081 102.304C262.145 101.536 260.825 100.912 259.457 100.912C257.249 100.912 255.977 102.304 255.977 103.888C255.977 105.376 256.889 106.12 258.689 107.104C260.009 107.824 261.209 108.472 261.209 109.336C261.209 110.104 260.465 110.56 259.505 110.56C258.329 110.56 257.417 110.056 256.481 109.408L255.833 111.016C256.625 111.736 258.065 112.336 259.577 112.336C261.497 112.336 263.249 111.328 263.249 109.336C263.249 107.992 262.577 107.08 260.561 105.904C259.097 105.04 258.017 104.536 258.017 103.72C258.017 103.168 258.521 102.664 259.529 102.664C260.465 102.664 261.377 103.096 262.409 103.888L263.081 102.304ZM265.7 101.416V112H267.86V101.128L265.7 101.416ZM265.34 97.072C265.34 97.864 265.988 98.512 266.78 98.512C267.572 98.512 268.22 97.864 268.22 97.072C268.22 96.28 267.572 95.632 266.78 95.632C265.988 95.632 265.34 96.28 265.34 97.072ZM275.215 110.176C273.703 110.176 272.599 109.312 272.599 107.032C272.599 104.632 273.679 102.784 275.623 102.784C276.535 102.784 277.351 103.216 277.831 103.648V109.192C277.111 109.792 276.103 110.176 275.215 110.176ZM271.999 114.16L271.159 115.864C272.047 116.56 273.199 116.968 274.687 116.968C277.639 116.968 279.991 114.736 279.991 111.832V101.272L278.983 101.104L278.191 101.992H278.071C277.327 101.248 276.391 100.912 275.503 100.912C272.311 100.912 270.391 103.648 270.391 106.912C270.391 110.248 272.023 112.096 274.615 112.096C275.311 112.096 276.559 112.048 277.711 110.896H277.831V111.904C277.807 114.208 276.319 115.048 274.663 115.048C273.655 115.048 272.911 114.832 272.047 114.16H271.999ZM284.58 102.232L284.412 101.248H282.636V112H284.796V104.2C285.348 103.432 286.38 102.832 287.364 102.832C288.372 102.832 289.356 103.24 289.356 105.064V112H291.516V104.512C291.516 102.016 290.1 100.912 288.204 100.912C286.86 100.912 285.708 101.392 284.7 102.232H284.58ZM293.088 115.84H295.008L303.648 95.2H301.728L293.088 115.84ZM318.575 95.68H316.319V105.904C316.319 109.144 314.591 110.368 312.167 110.368C309.671 110.368 308.015 109.096 308.015 105.904V95.68H305.759V106.312C305.759 109.312 307.151 112.36 312.167 112.36C316.583 112.36 318.575 109.336 318.575 106.192V95.68ZM328.401 102.304C327.465 101.536 326.145 100.912 324.777 100.912C322.569 100.912 321.297 102.304 321.297 103.888C321.297 105.376 322.209 106.12 324.009 107.104C325.329 107.824 326.529 108.472 326.529 109.336C326.529 110.104 325.785 110.56 324.825 110.56C323.649 110.56 322.737 110.056 321.801 109.408L321.153 111.016C321.945 111.736 323.385 112.336 324.897 112.336C326.817 112.336 328.569 111.328 328.569 109.336C328.569 107.992 327.897 107.08 325.881 105.904C324.417 105.04 323.337 104.536 323.337 103.72C323.337 103.168 323.841 102.664 324.849 102.664C325.785 102.664 326.697 103.096 327.729 103.888L328.401 102.304ZM339.396 111.016C338.916 110.752 338.436 110.176 338.436 109.36V104.416C338.436 101.92 336.636 100.912 334.836 100.912C333.132 100.912 331.86 101.512 330.852 102.112L331.572 103.72C332.58 103.048 333.492 102.664 334.428 102.664C335.34 102.664 336.42 103.192 336.42 104.776V105.832C335.892 105.76 335.172 105.712 334.692 105.712C331.38 105.712 330.252 107.536 330.252 109.12C330.252 111.16 331.812 112.336 333.54 112.336C334.74 112.336 335.916 111.832 336.66 110.848H336.756C336.996 111.592 337.452 112.048 337.932 112.36L339.396 111.112V111.016ZM336.42 109.168C336.012 110.032 335.076 110.584 333.972 110.584C333.036 110.584 332.316 110.104 332.316 109.096C332.316 108.016 333.156 107.248 334.668 107.248C335.268 107.248 335.964 107.32 336.42 107.392V109.168ZM343.39 101.944V95.392L341.23 95.68V111.016C342.598 111.952 344.158 112.336 345.454 112.336C348.598 112.336 350.83 109.912 350.83 106.576C350.83 103.216 349.054 100.912 346.39 100.912C345.19 100.912 344.302 101.272 343.51 101.944H343.39ZM343.39 103.792C343.87 103.312 344.878 102.76 345.766 102.76C347.854 102.76 348.622 104.32 348.622 106.456C348.622 109.192 347.182 110.464 345.382 110.464C344.614 110.464 343.87 110.272 343.39 109.888V103.792ZM353.356 101.416V112H355.516V101.128L353.356 101.416ZM352.996 97.072C352.996 97.864 353.644 98.512 354.436 98.512C355.228 98.512 355.876 97.864 355.876 97.072C355.876 96.28 355.228 95.632 354.436 95.632C353.644 95.632 352.996 96.28 352.996 97.072ZM358.887 95.68V112H361.047V95.392L358.887 95.68ZM364.418 101.416V112H366.578V101.128L364.418 101.416ZM364.058 97.072C364.058 97.864 364.706 98.512 365.498 98.512C366.29 98.512 366.938 97.864 366.938 97.072C366.938 96.28 366.29 95.632 365.498 95.632C364.706 95.632 364.058 96.28 364.058 97.072ZM370.79 98.128V101.128L368.63 101.944V102.928H370.79V112H372.95V102.928H375.47V101.248H372.95V97.504L370.79 98.128ZM386.182 101.248H383.95L381.238 108.52H381.142L378.478 101.248H376.246L380.086 111.448C379.318 114.088 378.166 115.648 377.278 116.32V116.968L379.39 116.68C379.99 116.488 380.686 115.384 381.166 114.136L386.182 101.248ZM404.437 97.648V95.68H391.621V97.648H396.901V112H399.157V97.648H404.437ZM412.044 107.224C412.26 106.552 412.284 105.712 412.284 105.232C412.284 102.832 410.7 100.912 408.132 100.912C405.324 100.912 403.188 103.384 403.188 106.912C403.188 110.752 405.468 112.336 408.06 112.336C409.548 112.336 410.844 111.856 411.636 111.112L411.228 109.384H411.156C410.46 110.056 409.308 110.536 408.372 110.536C406.74 110.536 405.396 109.744 405.396 107.224H412.044ZM405.492 105.688C405.54 103.984 406.596 102.688 408.084 102.688C409.308 102.688 410.436 103.792 410.148 105.688H405.492ZM421.096 102.304C420.16 101.536 418.84 100.912 417.472 100.912C415.264 100.912 413.992 102.304 413.992 103.888C413.992 105.376 414.904 106.12 416.704 107.104C418.024 107.824 419.224 108.472 419.224 109.336C419.224 110.104 418.48 110.56 417.52 110.56C416.344 110.56 415.432 110.056 414.496 109.408L413.848 111.016C414.64 111.736 416.08 112.336 417.592 112.336C419.512 112.336 421.264 111.328 421.264 109.336C421.264 107.992 420.592 107.08 418.576 105.904C417.112 105.04 416.032 104.536 416.032 103.72C416.032 103.168 416.536 102.664 417.544 102.664C418.48 102.664 419.392 103.096 420.424 103.888L421.096 102.304ZM424.555 98.128V101.128L422.395 101.944V102.928H424.555V112H426.715V102.928H429.235V101.248H426.715V97.504L424.555 98.128ZM431.145 101.416V112H433.305V101.128L431.145 101.416ZM430.785 97.072C430.785 97.864 431.433 98.512 432.225 98.512C433.017 98.512 433.665 97.864 433.665 97.072C433.665 96.28 433.017 95.632 432.225 95.632C431.433 95.632 430.785 96.28 430.785 97.072ZM438.26 102.232L438.092 101.248H436.316V112H438.476V104.2C439.028 103.432 440.06 102.832 441.044 102.832C442.052 102.832 443.036 103.24 443.036 105.064V112H445.196V104.512C445.196 102.016 443.78 100.912 441.884 100.912C440.54 100.912 439.388 101.392 438.38 102.232H438.26ZM452.191 110.176C450.679 110.176 449.575 109.312 449.575 107.032C449.575 104.632 450.655 102.784 452.599 102.784C453.511 102.784 454.327 103.216 454.807 103.648V109.192C454.087 109.792 453.079 110.176 452.191 110.176ZM448.975 114.16L448.135 115.864C449.023 116.56 450.175 116.968 451.663 116.968C454.615 116.968 456.967 114.736 456.967 111.832V101.272L455.959 101.104L455.167 101.992H455.047C454.303 101.248 453.367 100.912 452.479 100.912C449.287 100.912 447.367 103.648 447.367 106.912C447.367 110.248 448.999 112.096 451.591 112.096C452.287 112.096 453.535 112.048 454.687 110.896H454.807V111.904C454.783 114.208 453.295 115.048 451.639 115.048C450.631 115.048 449.887 114.832 449.023 114.16H448.975Z" fill="white"/>
</g>
<g filter="url(#filter4_d)">
<path d="M661.268 109.456L661.34 111.472C662.492 112.024 663.812 112.36 665.444 112.36C667.364 112.36 671.372 111.664 671.372 107.416C671.372 105.712 670.292 103.984 668.252 103.528V103.288C669.98 102.856 671.084 101.416 671.084 99.496C671.084 96.712 668.732 95.32 665.78 95.32C664.316 95.32 662.996 95.752 662.3 96.064L662.108 97.984L662.204 98.056C663.356 97.528 664.436 97.216 665.468 97.216C667.46 97.216 668.78 98.224 668.78 99.832C668.78 101.44 667.46 102.712 665.804 102.664L663.092 102.568L662.9 104.656L665.9 104.56C667.94 104.488 669.068 105.712 669.068 107.224C669.068 109.312 667.556 110.392 665.66 110.392C664.172 110.392 662.708 110.008 661.34 109.384L661.268 109.456ZM693.746 101.68L695.018 112H697.322L694.922 95.44H694.442L688.394 107.896H688.298L682.106 95.44H681.626L679.226 112H681.53L682.802 101.68H682.97L688.154 112.24H688.394L693.578 101.68H693.746ZM709.385 106.72C709.385 103.384 707.369 100.912 704.249 100.912C701.417 100.912 699.305 103.36 699.305 106.72C699.305 110.008 701.513 112.336 704.345 112.336C707.129 112.336 709.385 110.008 709.385 106.72ZM707.177 106.696C707.177 109.072 705.953 110.56 704.345 110.56C702.617 110.56 701.513 109.024 701.513 106.696C701.513 104.392 702.617 102.688 704.249 102.688C706.049 102.688 707.177 104.32 707.177 106.696ZM713.494 102.232L713.326 101.248H711.55V112H713.71V104.2C714.262 103.432 715.294 102.832 716.278 102.832C717.286 102.832 718.27 103.24 718.27 105.064V112H720.43V104.512C720.43 102.016 719.014 100.912 717.118 100.912C715.774 100.912 714.622 101.392 713.614 102.232H713.494ZM724.047 98.128V101.128L721.887 101.944V102.928H724.047V112H726.207V102.928H728.727V101.248H726.207V97.504L724.047 98.128ZM732.437 102.232V95.392L730.277 95.68V112H732.437V104.2C733.181 103.36 734.117 102.832 735.077 102.832C735.917 102.832 736.997 103.384 736.997 104.968V112H739.157V104.704C739.157 102.016 737.621 100.912 735.773 100.912C734.501 100.912 733.397 101.464 732.557 102.232H732.437ZM748.432 102.304C747.496 101.536 746.176 100.912 744.808 100.912C742.6 100.912 741.328 102.304 741.328 103.888C741.328 105.376 742.24 106.12 744.04 107.104C745.36 107.824 746.56 108.472 746.56 109.336C746.56 110.104 745.816 110.56 744.856 110.56C743.68 110.56 742.768 110.056 741.832 109.408L741.184 111.016C741.976 111.736 743.416 112.336 744.928 112.336C746.848 112.336 748.6 111.328 748.6 109.336C748.6 107.992 747.928 107.08 745.912 105.904C744.448 105.04 743.368 104.536 743.368 103.72C743.368 103.168 743.872 102.664 744.88 102.664C745.816 102.664 746.728 103.096 747.76 103.888L748.432 102.304ZM751.171 110.728C751.171 111.52 751.819 112.168 752.611 112.168C753.403 112.168 754.051 111.52 754.051 110.728C754.051 109.936 753.403 109.288 752.611 109.288C751.819 109.288 751.171 109.936 751.171 110.728ZM751.171 103.048C751.171 103.84 751.819 104.488 752.611 104.488C753.403 104.488 754.051 103.84 754.051 103.048C754.051 102.256 753.403 101.608 752.611 101.608C751.819 101.608 751.171 102.256 751.171 103.048ZM761.977 110.848C762.769 111.568 764.689 112.36 766.921 112.36C770.041 112.36 772.249 110.848 772.249 107.776C772.249 105.856 771.097 104.296 768.025 102.64C765.361 101.2 764.713 100.528 764.713 99.424C764.713 98.152 765.529 97.288 767.617 97.288C768.937 97.288 770.305 97.864 771.361 98.656L771.889 96.688C770.953 96.016 769.345 95.32 767.569 95.32C764.065 95.32 762.457 97.504 762.457 99.592C762.457 101.8 763.825 102.736 767.017 104.608C769.129 105.856 769.921 106.552 769.921 107.896C769.921 109.192 769.153 110.368 766.945 110.368C765.145 110.368 763.681 109.648 762.553 108.76L761.977 110.848ZM776.492 102.088L775.892 101.08L774.668 101.224V116.896L776.828 116.608V111.376H776.948C777.644 112.168 778.676 112.336 779.492 112.336C781.268 112.336 784.268 110.992 784.268 106.648C784.268 102.52 781.82 100.912 779.468 100.912C778.292 100.912 777.332 101.344 776.612 102.088H776.492ZM779.036 102.784C780.212 102.784 782.06 103.624 782.06 106.816C782.06 109.456 780.404 110.392 778.988 110.392C777.98 110.392 777.308 110.056 776.828 109.312V103.84C777.284 103.264 778.028 102.784 779.036 102.784ZM791.929 101.056C790.609 101.08 789.217 102.184 788.641 103.48H788.473L788.281 101.248H786.433V112H788.593V106.648C788.977 104.872 790.345 103.48 791.737 103.312H792.505V101.056H791.929ZM794.481 101.416V112H796.641V101.128L794.481 101.416ZM794.121 97.072C794.121 97.864 794.769 98.512 795.561 98.512C796.353 98.512 797.001 97.864 797.001 97.072C797.001 96.28 796.353 95.632 795.561 95.632C794.769 95.632 794.121 96.28 794.121 97.072ZM801.596 102.232L801.428 101.248H799.652V112H801.812V104.2C802.364 103.432 803.396 102.832 804.38 102.832C805.388 102.832 806.372 103.24 806.372 105.064V112H808.532V104.512C808.532 102.016 807.116 100.912 805.22 100.912C803.876 100.912 802.724 101.392 801.716 102.232H801.596ZM815.527 110.176C814.015 110.176 812.911 109.312 812.911 107.032C812.911 104.632 813.991 102.784 815.935 102.784C816.847 102.784 817.663 103.216 818.143 103.648V109.192C817.423 109.792 816.415 110.176 815.527 110.176ZM812.311 114.16L811.471 115.864C812.359 116.56 813.511 116.968 814.999 116.968C817.951 116.968 820.303 114.736 820.303 111.832V101.272L819.295 101.104L818.503 101.992H818.383C817.639 101.248 816.703 100.912 815.815 100.912C812.623 100.912 810.703 103.648 810.703 106.912C810.703 110.248 812.335 112.096 814.927 112.096C815.623 112.096 816.871 112.048 818.023 110.896H818.143V111.904C818.119 114.208 816.631 115.048 814.975 115.048C813.967 115.048 813.223 114.832 812.359 114.16H812.311ZM828.894 98.752C829.542 98.32 831.15 97.312 833.118 97.312C834.894 97.312 836.07 98.272 836.07 100.264C836.07 102.4 834.006 105.544 827.454 111.16L827.694 112H838.662V109.72L831.438 109.936L831.39 109.792C835.854 106.24 838.422 102.976 838.422 99.832C838.422 96.592 836.118 95.32 833.262 95.32C830.91 95.32 829.158 96.328 828.75 96.64L828.894 98.752ZM852.943 103.672C852.943 98.08 850.447 95.32 846.991 95.32C843.655 95.32 840.943 97.696 840.943 103.672C840.943 110.104 843.655 112.36 846.991 112.36C850.447 112.36 852.943 109.744 852.943 103.672ZM850.639 103.624C850.639 108.424 849.295 110.368 847.015 110.368C845.119 110.368 843.247 108.832 843.247 103.624C843.247 99.208 844.951 97.312 846.895 97.312C849.103 97.312 850.639 99.496 850.639 103.624ZM855.543 98.752C856.191 98.32 857.799 97.312 859.767 97.312C861.543 97.312 862.719 98.272 862.719 100.264C862.719 102.4 860.655 105.544 854.103 111.16L854.343 112H865.311V109.72L858.087 109.936L858.039 109.792C862.503 106.24 865.071 102.976 865.071 99.832C865.071 96.592 862.767 95.32 859.911 95.32C857.559 95.32 855.807 96.328 855.399 96.64L855.543 98.752ZM879.592 103.672C879.592 98.08 877.096 95.32 873.64 95.32C870.304 95.32 867.592 97.696 867.592 103.672C867.592 110.104 870.304 112.36 873.64 112.36C877.096 112.36 879.592 109.744 879.592 103.672ZM877.288 103.624C877.288 108.424 875.944 110.368 873.664 110.368C871.768 110.368 869.896 108.832 869.896 103.624C869.896 99.208 871.6 97.312 873.544 97.312C875.752 97.312 877.288 99.496 877.288 103.624Z" fill="white"/>
</g>
<g filter="url(#filter5_d)">
<path d="M1124.92 95.68H1122.67V102.52H1114.36V95.68H1112.11V112H1114.36V104.488H1122.67V112H1124.92V95.68ZM1136.5 107.224C1136.72 106.552 1136.74 105.712 1136.74 105.232C1136.74 102.832 1135.16 100.912 1132.59 100.912C1129.78 100.912 1127.64 103.384 1127.64 106.912C1127.64 110.752 1129.92 112.336 1132.52 112.336C1134 112.336 1135.3 111.856 1136.09 111.112L1135.68 109.384H1135.61C1134.92 110.056 1133.76 110.536 1132.83 110.536C1131.2 110.536 1129.85 109.744 1129.85 107.224H1136.5ZM1129.95 105.688C1130 103.984 1131.05 102.688 1132.54 102.688C1133.76 102.688 1134.89 103.792 1134.6 105.688H1129.95ZM1139.29 95.68V112H1141.45V95.392L1139.29 95.68ZM1146.28 102.088L1145.68 101.08L1144.46 101.224V116.896L1146.62 116.608V111.376H1146.74C1147.44 112.168 1148.47 112.336 1149.28 112.336C1151.06 112.336 1154.06 110.992 1154.06 106.648C1154.06 102.52 1151.61 100.912 1149.26 100.912C1148.08 100.912 1147.12 101.344 1146.4 102.088H1146.28ZM1148.83 102.784C1150 102.784 1151.85 103.624 1151.85 106.816C1151.85 109.456 1150.2 110.392 1148.78 110.392C1147.77 110.392 1147.1 110.056 1146.62 109.312V103.84C1147.08 103.264 1147.82 102.784 1148.83 102.784ZM1161.04 110.848C1161.84 111.568 1163.76 112.36 1165.99 112.36C1169.11 112.36 1171.32 110.848 1171.32 107.776C1171.32 105.856 1170.16 104.296 1167.09 102.64C1164.43 101.2 1163.78 100.528 1163.78 99.424C1163.78 98.152 1164.6 97.288 1166.68 97.288C1168 97.288 1169.37 97.864 1170.43 98.656L1170.96 96.688C1170.02 96.016 1168.41 95.32 1166.64 95.32C1163.13 95.32 1161.52 97.504 1161.52 99.592C1161.52 101.8 1162.89 102.736 1166.08 104.608C1168.2 105.856 1168.99 106.552 1168.99 107.896C1168.99 109.192 1168.22 110.368 1166.01 110.368C1164.21 110.368 1162.75 109.648 1161.62 108.76L1161.04 110.848ZM1183.33 106.72C1183.33 103.384 1181.32 100.912 1178.2 100.912C1175.37 100.912 1173.25 103.36 1173.25 106.72C1173.25 110.008 1175.46 112.336 1178.29 112.336C1181.08 112.336 1183.33 110.008 1183.33 106.72ZM1181.13 106.696C1181.13 109.072 1179.9 110.56 1178.29 110.56C1176.57 110.56 1175.46 109.024 1175.46 106.696C1175.46 104.392 1176.57 102.688 1178.2 102.688C1180 102.688 1181.13 104.32 1181.13 106.696ZM1187.44 102.232L1187.28 101.248H1185.5V112H1187.66V104.2C1188.21 103.432 1189.24 102.832 1190.23 102.832C1191.24 102.832 1192.22 103.24 1192.22 105.064V112H1194.38V104.512C1194.38 102.016 1192.96 100.912 1191.07 100.912C1189.72 100.912 1188.57 101.392 1187.56 102.232H1187.44ZM1201.37 110.176C1199.86 110.176 1198.76 109.312 1198.76 107.032C1198.76 104.632 1199.84 102.784 1201.78 102.784C1202.69 102.784 1203.51 103.216 1203.99 103.648V109.192C1203.27 109.792 1202.26 110.176 1201.37 110.176ZM1198.16 114.16L1197.32 115.864C1198.21 116.56 1199.36 116.968 1200.85 116.968C1203.8 116.968 1206.15 114.736 1206.15 111.832V101.272L1205.14 101.104L1204.35 101.992H1204.23C1203.49 101.248 1202.55 100.912 1201.66 100.912C1198.47 100.912 1196.55 103.648 1196.55 106.912C1196.55 110.248 1198.18 112.096 1200.77 112.096C1201.47 112.096 1202.72 112.048 1203.87 110.896H1203.99V111.904C1203.97 114.208 1202.48 115.048 1200.82 115.048C1199.81 115.048 1199.07 114.832 1198.21 114.16H1198.16ZM1215.32 105.832L1217.51 112.336H1218.23L1222.52 101.248H1220.29L1217.99 107.992H1217.89L1215.59 101.104H1214.96L1212.56 107.992H1212.47L1210.02 101.248H1207.79L1212.08 112.336H1212.8L1215.18 105.832H1215.32ZM1229.64 101.056C1228.32 101.08 1226.93 102.184 1226.36 103.48H1226.19L1226 101.248H1224.15V112H1226.31V106.648C1226.69 104.872 1228.06 103.48 1229.45 103.312H1230.22V101.056H1229.64ZM1232.2 101.416V112H1234.36V101.128L1232.2 101.416ZM1231.84 97.072C1231.84 97.864 1232.48 98.512 1233.28 98.512C1234.07 98.512 1234.72 97.864 1234.72 97.072C1234.72 96.28 1234.07 95.632 1233.28 95.632C1232.48 95.632 1231.84 96.28 1231.84 97.072ZM1238.57 98.128V101.128L1236.41 101.944V102.928H1238.57V112H1240.73V102.928H1243.25V101.248H1240.73V97.504L1238.57 98.128ZM1253.17 107.224C1253.39 106.552 1253.41 105.712 1253.41 105.232C1253.41 102.832 1251.83 100.912 1249.26 100.912C1246.45 100.912 1244.32 103.384 1244.32 106.912C1244.32 110.752 1246.6 112.336 1249.19 112.336C1250.68 112.336 1251.97 111.856 1252.76 111.112L1252.36 109.384H1252.28C1251.59 110.056 1250.44 110.536 1249.5 110.536C1247.87 110.536 1246.52 109.744 1246.52 107.224H1253.17ZM1246.62 105.688C1246.67 103.984 1247.72 102.688 1249.21 102.688C1250.44 102.688 1251.56 103.792 1251.28 105.688H1246.62ZM1261.1 101.056C1259.78 101.08 1258.39 102.184 1257.81 103.48H1257.64L1257.45 101.248H1255.6V112H1257.76V106.648C1258.15 104.872 1259.51 103.48 1260.91 103.312H1261.67V101.056H1261.1ZM1269.91 102.304C1268.98 101.536 1267.66 100.912 1266.29 100.912C1264.08 100.912 1262.81 102.304 1262.81 103.888C1262.81 105.376 1263.72 106.12 1265.52 107.104C1266.84 107.824 1268.04 108.472 1268.04 109.336C1268.04 110.104 1267.3 110.56 1266.34 110.56C1265.16 110.56 1264.25 110.056 1263.31 109.408L1262.66 111.016C1263.46 111.736 1264.9 112.336 1266.41 112.336C1268.33 112.336 1270.08 111.328 1270.08 109.336C1270.08 107.992 1269.41 107.08 1267.39 105.904C1265.93 105.04 1264.85 104.536 1264.85 103.72C1264.85 103.168 1265.35 102.664 1266.36 102.664C1267.3 102.664 1268.21 103.096 1269.24 103.888L1269.91 102.304ZM1293.45 103.96C1293.45 98.656 1289.71 95.32 1285.39 95.32C1281.19 95.32 1277.28 98.728 1277.28 103.96C1277.28 108.76 1280.88 112.36 1285.39 112.36C1290.09 112.36 1293.45 108.52 1293.45 103.96ZM1291.1 103.912C1291.1 107.296 1288.85 110.32 1285.44 110.32C1281.79 110.32 1279.63 107.2 1279.63 103.912C1279.63 99.808 1282.37 97.36 1285.27 97.36C1288.58 97.36 1291.1 100.048 1291.1 103.912ZM1297.14 101.248H1294.91L1299.39 112.336H1300.11L1304.84 101.248H1302.61L1299.9 108.256H1299.8L1297.14 101.248ZM1314.63 107.224C1314.84 106.552 1314.87 105.712 1314.87 105.232C1314.87 102.832 1313.28 100.912 1310.71 100.912C1307.91 100.912 1305.77 103.384 1305.77 106.912C1305.77 110.752 1308.05 112.336 1310.64 112.336C1312.13 112.336 1313.43 111.856 1314.22 111.112L1313.81 109.384H1313.74C1313.04 110.056 1311.89 110.536 1310.95 110.536C1309.32 110.536 1307.98 109.744 1307.98 107.224H1314.63ZM1308.07 105.688C1308.12 103.984 1309.18 102.688 1310.67 102.688C1311.89 102.688 1313.02 103.792 1312.73 105.688H1308.07ZM1322.55 101.056C1321.23 101.08 1319.84 102.184 1319.26 103.48H1319.09L1318.9 101.248H1317.05V112H1319.21V106.648C1319.6 104.872 1320.97 103.48 1322.36 103.312H1323.13V101.056H1322.55ZM1332.38 102.064C1331.42 101.344 1330.6 100.912 1329.12 100.912C1326.43 100.912 1324.03 103.456 1324.03 106.96C1324.03 110.152 1326.07 112.336 1329.02 112.336C1330.24 112.336 1331.47 111.808 1332.21 111.184L1331.73 109.504C1331.08 110.008 1330.24 110.488 1329.16 110.488C1327.53 110.488 1326.24 109.432 1326.24 106.912C1326.24 104.392 1327.58 102.736 1329.31 102.736C1330.22 102.736 1330.99 103.12 1331.66 103.72L1332.38 102.064ZM1343.72 106.72C1343.72 103.384 1341.7 100.912 1338.58 100.912C1335.75 100.912 1333.64 103.36 1333.64 106.72C1333.64 110.008 1335.84 112.336 1338.68 112.336C1341.46 112.336 1343.72 110.008 1343.72 106.72ZM1341.51 106.696C1341.51 109.072 1340.28 110.56 1338.68 110.56C1336.95 110.56 1335.84 109.024 1335.84 106.696C1335.84 104.392 1336.95 102.688 1338.58 102.688C1340.38 102.688 1341.51 104.32 1341.51 106.696ZM1354.16 102.472C1353.56 101.488 1352.55 100.912 1351.31 100.912C1349.94 100.912 1348.81 101.512 1347.95 102.232H1347.83L1347.66 101.248H1345.88V112H1348.04V104.152C1348.67 103.36 1349.55 102.832 1350.44 102.832C1351.33 102.832 1352.48 103.24 1352.48 104.824V112H1354.64V104.152C1355.19 103.504 1356.13 102.832 1357.04 102.832C1358.03 102.832 1359.08 103.24 1359.08 104.824V112H1361.24V104.416C1361.24 101.92 1359.51 100.912 1357.91 100.912C1356.54 100.912 1355.55 101.392 1354.28 102.472H1354.16ZM1372.26 107.224C1372.47 106.552 1372.5 105.712 1372.5 105.232C1372.5 102.832 1370.91 100.912 1368.35 100.912C1365.54 100.912 1363.4 103.384 1363.4 106.912C1363.4 110.752 1365.68 112.336 1368.27 112.336C1369.76 112.336 1371.06 111.856 1371.85 111.112L1371.44 109.384H1371.37C1370.67 110.056 1369.52 110.536 1368.59 110.536C1366.95 110.536 1365.61 109.744 1365.61 107.224H1372.26ZM1365.71 105.688C1365.75 103.984 1366.81 102.688 1368.3 102.688C1369.52 102.688 1370.65 103.792 1370.36 105.688H1365.71ZM1389.22 101.464L1392.61 112.36H1393.33L1399.33 95.68H1396.9L1393.16 106.816H1392.97L1389.39 95.44H1388.77L1385.34 106.816H1385.14L1381.26 95.68H1378.83L1384.83 112.36H1385.55L1389.03 101.464H1389.22ZM1405.61 101.056C1404.29 101.08 1402.9 102.184 1402.32 103.48H1402.16L1401.96 101.248H1400.12V112H1402.28V106.648C1402.66 104.872 1404.03 103.48 1405.42 103.312H1406.19V101.056H1405.61ZM1408.16 101.416V112H1410.32V101.128L1408.16 101.416ZM1407.8 97.072C1407.8 97.864 1408.45 98.512 1409.24 98.512C1410.04 98.512 1410.68 97.864 1410.68 97.072C1410.68 96.28 1410.04 95.632 1409.24 95.632C1408.45 95.632 1407.8 96.28 1407.8 97.072ZM1414.54 98.128V101.128L1412.38 101.944V102.928H1414.54V112H1416.7V102.928H1419.22V101.248H1416.7V97.504L1414.54 98.128ZM1429.14 107.224C1429.36 106.552 1429.38 105.712 1429.38 105.232C1429.38 102.832 1427.8 100.912 1425.23 100.912C1422.42 100.912 1420.29 103.384 1420.29 106.912C1420.29 110.752 1422.57 112.336 1425.16 112.336C1426.65 112.336 1427.94 111.856 1428.73 111.112L1428.33 109.384H1428.25C1427.56 110.056 1426.41 110.536 1425.47 110.536C1423.84 110.536 1422.49 109.744 1422.49 107.224H1429.14ZM1422.59 105.688C1422.64 103.984 1423.69 102.688 1425.18 102.688C1426.41 102.688 1427.53 103.792 1427.25 105.688H1422.59ZM1437.07 101.056C1435.75 101.08 1434.35 102.184 1433.78 103.48H1433.61L1433.42 101.248H1431.57V112H1433.73V106.648C1434.11 104.872 1435.48 103.48 1436.87 103.312H1437.64V101.056H1437.07ZM1441.47 101.584L1444.16 95.68H1441.62L1439.96 101.584H1441.47ZM1451.65 102.304C1450.71 101.536 1449.39 100.912 1448.02 100.912C1445.82 100.912 1444.54 102.304 1444.54 103.888C1444.54 105.376 1445.46 106.12 1447.26 107.104C1448.58 107.824 1449.78 108.472 1449.78 109.336C1449.78 110.104 1449.03 110.56 1448.07 110.56C1446.9 110.56 1445.98 110.056 1445.05 109.408L1444.4 111.016C1445.19 111.736 1446.63 112.336 1448.14 112.336C1450.06 112.336 1451.82 111.328 1451.82 109.336C1451.82 107.992 1451.14 107.08 1449.13 105.904C1447.66 105.04 1446.58 104.536 1446.58 103.72C1446.58 103.168 1447.09 102.664 1448.1 102.664C1449.03 102.664 1449.94 103.096 1450.98 103.888L1451.65 102.304ZM1466.93 103.312C1468.47 102.808 1469.28 100.912 1469.28 99.64C1469.28 97.432 1467.72 95.68 1464.2 95.68H1459.73V112H1464.48C1468.01 112 1470.15 110.32 1470.15 107.32C1470.15 105.496 1469.04 103.984 1466.93 103.432V103.312ZM1464.56 104.44C1466.28 104.44 1467.89 105.4 1467.89 107.272C1467.89 109.552 1466.09 110.104 1464.6 110.104H1461.99V104.44H1464.56ZM1467.03 100C1467.03 101.632 1465.95 102.568 1464.6 102.568H1461.99V97.576H1464.08C1465.85 97.576 1467.03 98.416 1467.03 100ZM1472.97 95.68V112H1475.13V95.392L1472.97 95.68ZM1487.74 106.72C1487.74 103.384 1485.72 100.912 1482.6 100.912C1479.77 100.912 1477.66 103.36 1477.66 106.72C1477.66 110.008 1479.87 112.336 1482.7 112.336C1485.48 112.336 1487.74 110.008 1487.74 106.72ZM1485.53 106.696C1485.53 109.072 1484.31 110.56 1482.7 110.56C1480.97 110.56 1479.87 109.024 1479.87 106.696C1479.87 104.392 1480.97 102.688 1482.6 102.688C1484.4 102.688 1485.53 104.32 1485.53 106.696ZM1497.78 102.064C1496.82 101.344 1496 100.912 1494.51 100.912C1491.83 100.912 1489.43 103.456 1489.43 106.96C1489.43 110.152 1491.47 112.336 1494.42 112.336C1495.64 112.336 1496.87 111.808 1497.61 111.184L1497.13 109.504C1496.48 110.008 1495.64 110.488 1494.56 110.488C1492.93 110.488 1491.63 109.432 1491.63 106.912C1491.63 104.392 1492.98 102.736 1494.71 102.736C1495.62 102.736 1496.39 103.12 1497.06 103.72L1497.78 102.064ZM1508.28 101.248H1505.85L1501.92 105.832H1501.68V95.392L1499.52 95.68V112H1501.68V108.088L1502.47 107.272L1506.19 112H1508.52V111.712L1503.96 106.216L1508.28 101.488V101.248Z" fill="white"/>
</g>
<g filter="url(#filter6_d)">
<rect x="122" y="75" width="243" height="5" fill="white"/>
</g>
<g filter="url(#filter7_d)">
<rect x="1188" y="75" width="243" height="5" fill="white"/>
</g>
<g filter="url(#filter8_d)">
<rect x="649" y="75" width="243" height="5" fill="white"/>
</g>
<defs>
<filter id="filter0_d" x="206.189" y="29.784" width="85.628" height="41.888" filterUnits="userSpaceOnUse" color-interpolation-filters="sRGB">
<feFlood flood-opacity="0" result="BackgroundImageFix"/>
<feColorMatrix in="SourceAlpha" type="matrix" values="0 0 0 0 0 0 0 0 0 0 0 0 0 0 0 0 0 0 127 0"/>
<feOffset dx="4" dy="4"/>
<feGaussianBlur stdDeviation="2"/>
<feColorMatrix type="matrix" values="0 0 0 0 0 0 0 0 0 0 0 0 0 0 0 0 0 0 0.25 0"/>
<feBlend mode="normal" in2="BackgroundImageFix" result="effect1_dropShadow"/>
<feBlend mode="normal" in="SourceGraphic" in2="effect1_dropShadow" result="shape"/>
</filter>
<filter id="filter1_d" x="690.694" y="29.784" width="167.498" height="41.888" filterUnits="userSpaceOnUse" color-interpolation-filters="sRGB">
<feFlood flood-opacity="0" result="BackgroundImageFix"/>
<feColorMatrix in="SourceAlpha" type="matrix" values="0 0 0 0 0 0 0 0 0 0 0 0 0 0 0 0 0 0 127 0"/>
<feOffset dx="4" dy="4"/>
<feGaussianBlur stdDeviation="2"/>
<feColorMatrix type="matrix" values="0 0 0 0 0 0 0 0 0 0 0 0 0 0 0 0 0 0 0.25 0"/>
<feBlend mode="normal" in2="BackgroundImageFix" result="effect1_dropShadow"/>
<feBlend mode="normal" in="SourceGraphic" in2="effect1_dropShadow" result="shape"/>
</filter>
<filter id="filter2_d" x="1267.4" y="29.64" width="92.126" height="42.08" filterUnits="userSpaceOnUse" color-interpolation-filters="sRGB">
<feFlood flood-opacity="0" result="BackgroundImageFix"/>
<feColorMatrix in="SourceAlpha" type="matrix" values="0 0 0 0 0 0 0 0 0 0 0 0 0 0 0 0 0 0 127 0"/>
<feOffset dx="4" dy="4"/>
<feGaussianBlur stdDeviation="2"/>
<feColorMatrix type="matrix" values="0 0 0 0 0 0 0 0 0 0 0 0 0 0 0 0 0 0 0.25 0"/>
<feBlend mode="normal" in2="BackgroundImageFix" result="effect1_dropShadow"/>
<feBlend mode="normal" in="SourceGraphic" in2="effect1_dropShadow" result="shape"/>
</filter>
<filter id="filter3_d" x="30.5791" y="95.2" width="434.388" height="29.768" filterUnits="userSpaceOnUse" color-interpolation-filters="sRGB">
<feFlood flood-opacity="0" result="BackgroundImageFix"/>
<feColorMatrix in="SourceAlpha" type="matrix" values="0 0 0 0 0 0 0 0 0 0 0 0 0 0 0 0 0 0 127 0"/>
<feOffset dx="4" dy="4"/>
<feGaussianBlur stdDeviation="2"/>
<feColorMatrix type="matrix" values="0 0 0 0 0 0 0 0 0 0 0 0 0 0 0 0 0 0 0.25 0"/>
<feBlend mode="normal" in2="BackgroundImageFix" result="effect1_dropShadow"/>
<feBlend mode="normal" in="SourceGraphic" in2="effect1_dropShadow" result="shape"/>
</filter>
<filter id="filter4_d" x="661.268" y="95.32" width="226.324" height="29.648" filterUnits="userSpaceOnUse" color-interpolation-filters="sRGB">
<feFlood flood-opacity="0" result="BackgroundImageFix"/>
<feColorMatrix in="SourceAlpha" type="matrix" values="0 0 0 0 0 0 0 0 0 0 0 0 0 0 0 0 0 0 127 0"/>
<feOffset dx="4" dy="4"/>
<feGaussianBlur stdDeviation="2"/>
<feColorMatrix type="matrix" values="0 0 0 0 0 0 0 0 0 0 0 0 0 0 0 0 0 0 0.25 0"/>
<feBlend mode="normal" in2="BackgroundImageFix" result="effect1_dropShadow"/>
<feBlend mode="normal" in="SourceGraphic" in2="effect1_dropShadow" result="shape"/>
</filter>
<filter id="filter5_d" x="1112.11" y="95.32" width="404.409" height="29.648" filterUnits="userSpaceOnUse" color-interpolation-filters="sRGB">
<feFlood flood-opacity="0" result="BackgroundImageFix"/>
<feColorMatrix in="SourceAlpha" type="matrix" values="0 0 0 0 0 0 0 0 0 0 0 0 0 0 0 0 0 0 127 0"/>
<feOffset dx="4" dy="4"/>
<feGaussianBlur stdDeviation="2"/>
<feColorMatrix type="matrix" values="0 0 0 0 0 0 0 0 0 0 0 0 0 0 0 0 0 0 0.25 0"/>
<feBlend mode="normal" in2="BackgroundImageFix" result="effect1_dropShadow"/>
<feBlend mode="normal" in="SourceGraphic" in2="effect1_dropShadow" result="shape"/>
</filter>
<filter id="filter6_d" x="122" y="75" width="251" height="13" filterUnits="userSpaceOnUse" color-interpolation-filters="sRGB">
<feFlood flood-opacity="0" result="BackgroundImageFix"/>
<feColorMatrix in="SourceAlpha" type="matrix" values="0 0 0 0 0 0 0 0 0 0 0 0 0 0 0 0 0 0 127 0"/>
<feOffset dx="4" dy="4"/>
<feGaussianBlur stdDeviation="2"/>
<feColorMatrix type="matrix" values="0 0 0 0 0 0 0 0 0 0 0 0 0 0 0 0 0 0 0.25 0"/>
<feBlend mode="normal" in2="BackgroundImageFix" result="effect1_dropShadow"/>
<feBlend mode="normal" in="SourceGraphic" in2="effect1_dropShadow" result="shape"/>
</filter>
<filter id="filter7_d" x="1188" y="75" width="251" height="13" filterUnits="userSpaceOnUse" color-interpolation-filters="sRGB">
<feFlood flood-opacity="0" result="BackgroundImageFix"/>
<feColorMatrix in="SourceAlpha" type="matrix" values="0 0 0 0 0 0 0 0 0 0 0 0 0 0 0 0 0 0 127 0"/>
<feOffset dx="4" dy="4"/>
<feGaussianBlur stdDeviation="2"/>
<feColorMatrix type="matrix" values="0 0 0 0 0 0 0 0 0 0 0 0 0 0 0 0 0 0 0.25 0"/>
<feBlend mode="normal" in2="BackgroundImageFix" result="effect1_dropShadow"/>
<feBlend mode="normal" in="SourceGraphic" in2="effect1_dropShadow" result="shape"/>
</filter>
<filter id="filter8_d" x="649" y="75" width="251" height="13" filterUnits="userSpaceOnUse" color-interpolation-filters="sRGB">
<feFlood flood-opacity="0" result="BackgroundImageFix"/>
<feColorMatrix in="SourceAlpha" type="matrix" values="0 0 0 0 0 0 0 0 0 0 0 0 0 0 0 0 0 0 127 0"/>
<feOffset dx="4" dy="4"/>
<feGaussianBlur stdDeviation="2"/>
<feColorMatrix type="matrix" values="0 0 0 0 0 0 0 0 0 0 0 0 0 0 0 0 0 0 0.25 0"/>
<feBlend mode="normal" in2="BackgroundImageFix" result="effect1_dropShadow"/>
<feBlend mode="normal" in="SourceGraphic" in2="effect1_dropShadow" result="shape"/>
</filter>
</defs>
</svg>
