<svg width="697" height="381" viewBox="0 0 697 381" fill="none" xmlns="http://www.w3.org/2000/svg">
<rect width="697" height="381" rx="40" fill="#8E76BF"/>
<g filter="url(#filter0_dd)">
<path d="M149.642 134.939C151.472 134.939 152.532 135.179 153.086 135.392C153.345 135.492 153.464 135.575 153.501 135.603C153.511 135.61 153.518 135.616 153.521 135.619L153.524 135.622C153.554 135.674 154.061 136.656 153.371 140.006C152.716 143.188 151.252 147.243 149.191 152.205C148.033 154.991 146.805 157.794 145.506 160.76C144.445 163.181 143.336 165.712 142.181 168.428C137.263 179.988 132.145 193.423 131.167 206.431C130.164 219.769 133.509 233.101 145.833 243.376C148.362 245.484 152.117 245.139 154.221 242.605C156.325 240.07 155.981 236.306 153.452 234.198C144.811 226.994 142.255 217.859 143.046 207.329C143.863 196.47 148.237 184.635 153.14 173.111C154.165 170.7 155.252 168.216 156.322 165.771C157.693 162.638 159.036 159.568 160.189 156.794C162.283 151.754 164.136 146.801 165.038 142.42C165.892 138.273 166.233 133.105 163.363 128.89C160.278 124.359 154.999 123 149.642 123C146.352 123 143.685 125.673 143.685 128.97C143.685 132.267 146.352 134.939 149.642 134.939Z" fill="#8E76BF"/>
<path d="M207.606 134.939C205.775 134.939 204.715 135.179 204.162 135.392C203.903 135.492 203.783 135.575 203.746 135.603C203.736 135.61 203.73 135.616 203.726 135.619L203.724 135.622C203.693 135.674 203.187 136.656 203.876 140.006C204.532 143.188 205.995 147.243 208.057 152.205C209.213 154.989 210.441 157.79 211.739 160.754L211.74 160.756L211.742 160.76C212.803 163.181 213.911 165.711 215.067 168.428C219.985 179.988 225.102 193.423 226.081 206.431C227.084 219.769 223.739 233.101 211.415 243.376C208.886 245.484 205.13 245.139 203.026 242.605C200.922 240.07 201.267 236.306 203.796 234.198C212.436 226.994 214.993 217.859 214.201 207.329C213.385 196.47 209.011 184.635 204.108 173.111C203.082 170.7 201.995 168.216 200.925 165.77C199.555 162.638 198.211 159.568 197.059 156.794C194.965 151.754 193.112 146.801 192.209 142.42C191.355 138.273 191.014 133.105 193.885 128.89C196.97 124.359 202.249 123 207.605 123C210.895 123 213.562 125.673 213.562 128.97C213.562 132.267 210.895 134.939 207.606 134.939Z" fill="#8E76BF"/>
<path d="M178.709 159.37C180.025 159.37 181.091 160.439 181.091 161.758V226.377C181.091 227.696 180.025 228.765 178.709 228.765C177.393 228.765 176.326 227.696 176.326 226.377V161.758C176.326 160.439 177.393 159.37 178.709 159.37Z" fill="#8E76BF"/>
<path d="M193.072 171.057C193.072 169.738 192.005 168.669 190.689 168.669C189.373 168.669 188.306 169.738 188.306 171.057V216.961C188.306 218.28 189.373 219.349 190.689 219.349C192.005 219.349 193.072 218.28 193.072 216.961V171.057Z" fill="#8E76BF"/>
<path d="M149.735 254.483C148.934 251.286 150.87 248.042 154.061 247.239C163.444 244.877 171.066 243.571 178.735 243.555C186.429 243.539 193.857 244.821 202.872 247.266C206.047 248.128 207.925 251.406 207.066 254.588C206.206 257.771 202.935 259.653 199.76 258.791C191.336 256.507 185.026 255.482 178.76 255.495C172.468 255.508 165.907 256.567 156.963 258.819C153.773 259.622 150.537 257.681 149.735 254.483Z" fill="#8E76BF"/>
<path d="M169.11 171.057C169.11 169.738 168.044 168.669 166.728 168.669C165.412 168.669 164.345 169.738 164.345 171.057L164.345 216.961C164.345 218.28 165.412 219.349 166.728 219.349C168.044 219.349 169.11 218.28 169.11 216.961L169.11 171.057Z" fill="#8E76BF"/>
<path d="M289.405 179.583H289.749L309.877 242.394H323.715L343.958 179.239H344.301L352.421 242.394H367.975L355.509 157.003H336.639L317.311 217.98H317.196L297.297 157.003H278.312L265.732 242.394H281.171L289.405 179.583Z" fill="#8E76BF"/>
<path d="M407.836 243.998C425.106 243.998 435.742 232.88 435.742 217.178V179.354H419.959V217.178C419.959 225.201 415.385 229.556 407.836 229.556C400.403 229.556 396.057 225.201 396.057 217.292V179.354H380.274V217.292C380.274 232.88 390.567 243.998 407.836 243.998Z" fill="#8E76BF"/>
<path d="M473.736 177.864C458.296 177.864 449.033 186.116 449.033 197.463C449.033 208.811 458.296 212.708 468.475 215.573C476.938 218.095 481.856 219.585 481.856 224.055C481.856 228.181 477.853 230.817 470.762 230.817C461.613 230.817 454.408 227.149 449.261 222.565V237.58C454.865 241.591 462.642 243.998 471.448 243.998C487.688 243.998 497.181 236.09 497.181 223.94C497.181 210.874 486.202 207.435 476.137 204.799C468.475 202.736 464.358 201.131 464.358 197.12C464.358 193.337 467.903 190.93 474.308 190.93C481.513 190.93 488.832 193.452 493.292 196.776V182.907C488.603 179.812 481.055 177.864 473.736 177.864Z" fill="#8E76BF"/>
<path d="M566 209.728C566 188.867 553.191 177.864 537.523 177.864C520.368 177.864 506.301 190.93 506.301 211.103C506.301 230.359 518.995 243.998 540.268 243.998C548.273 243.998 555.707 241.821 562.112 237.809V224.284C555.936 228.639 549.074 231.161 542.097 231.161C531.69 231.161 523.57 225.545 521.397 215.458H565.543C565.771 213.739 566 211.905 566 209.728ZM521.283 205.487C522.998 196.317 529.631 190.586 537.408 190.586C544.728 190.586 550.675 195.744 550.904 205.487H521.283Z" fill="#8E76BF"/>
</g>
<g filter="url(#filter1_d)">
<path d="M91.2122 327H94.8122L83.7242 301.8H83.0042L71.9882 327H75.5882L78.2162 320.628H88.5122L91.2122 327ZM83.2202 308.64H83.4722L87.2882 317.676H79.4402L83.2202 308.64ZM109.065 312.096C107.625 311.016 106.401 310.368 104.169 310.368C100.137 310.368 96.5373 314.184 96.5373 319.44C96.5373 324.228 99.5973 327.504 104.025 327.504C105.861 327.504 107.697 326.712 108.813 325.776L108.093 323.256C107.121 324.012 105.861 324.732 104.241 324.732C101.793 324.732 99.8493 323.148 99.8493 319.368C99.8493 315.588 101.865 313.104 104.457 313.104C105.825 313.104 106.977 313.68 107.985 314.58L109.065 312.096ZM124.775 325.524C124.055 325.128 123.335 324.264 123.335 323.04V315.624C123.335 311.88 120.635 310.368 117.935 310.368C115.379 310.368 113.471 311.268 111.959 312.168L113.039 314.58C114.551 313.572 115.919 312.996 117.323 312.996C118.691 312.996 120.311 313.788 120.311 316.164V317.748C119.519 317.64 118.439 317.568 117.719 317.568C112.751 317.568 111.059 320.304 111.059 322.68C111.059 325.74 113.399 327.504 115.991 327.504C117.791 327.504 119.555 326.748 120.671 325.272H120.815C121.175 326.388 121.859 327.072 122.579 327.54L124.775 325.668V325.524ZM120.311 322.752C119.699 324.048 118.295 324.876 116.639 324.876C115.235 324.876 114.155 324.156 114.155 322.644C114.155 321.024 115.415 319.872 117.683 319.872C118.583 319.872 119.627 319.98 120.311 320.088V322.752ZM138.498 325.452L139.182 327H141.558V302.088L138.318 302.52V311.484H138.138C137.418 310.872 136.338 310.368 134.826 310.368C130.038 310.368 127.158 314.472 127.158 319.368C127.158 324.588 129.822 327.504 133.494 327.504C135.222 327.504 136.698 326.964 138.354 325.452H138.498ZM134.394 324.624C132.126 324.624 130.47 322.824 130.47 319.152C130.47 315.552 132.09 313.176 135.006 313.176C136.23 313.176 137.49 313.608 138.318 314.472V322.86C137.202 324.12 135.726 324.624 134.394 324.624ZM158.091 319.836C158.415 318.828 158.451 317.568 158.451 316.848C158.451 313.248 156.075 310.368 152.223 310.368C148.011 310.368 144.807 314.076 144.807 319.368C144.807 325.128 148.227 327.504 152.115 327.504C154.347 327.504 156.291 326.784 157.479 325.668L156.867 323.076H156.759C155.715 324.084 153.987 324.804 152.583 324.804C150.135 324.804 148.119 323.616 148.119 319.836H158.091ZM148.263 317.532C148.335 314.976 149.919 313.032 152.151 313.032C153.987 313.032 155.679 314.688 155.247 317.532H148.263ZM174.154 312.708C173.254 311.232 171.742 310.368 169.87 310.368C167.818 310.368 166.126 311.268 164.83 312.348H164.65L164.398 310.872H161.734V327H164.974V315.228C165.91 314.04 167.242 313.248 168.574 313.248C169.906 313.248 171.634 313.86 171.634 316.236V327H174.874V315.228C175.702 314.256 177.106 313.248 178.474 313.248C179.95 313.248 181.534 313.86 181.534 316.236V327H184.774V315.624C184.774 311.88 182.182 310.368 179.77 310.368C177.718 310.368 176.242 311.088 174.334 312.708H174.154ZM189.274 311.124V327H192.514V310.692L189.274 311.124ZM188.734 304.608C188.734 305.796 189.706 306.768 190.894 306.768C192.082 306.768 193.054 305.796 193.054 304.608C193.054 303.42 192.082 302.448 190.894 302.448C189.706 302.448 188.734 303.42 188.734 304.608ZM208.839 312.096C207.399 311.016 206.175 310.368 203.943 310.368C199.911 310.368 196.311 314.184 196.311 319.44C196.311 324.228 199.371 327.504 203.799 327.504C205.635 327.504 207.471 326.712 208.587 325.776L207.867 323.256C206.895 324.012 205.635 324.732 204.015 324.732C201.567 324.732 199.623 323.148 199.623 319.368C199.623 315.588 201.639 313.104 204.231 313.104C205.599 313.104 206.751 313.68 207.759 314.58L208.839 312.096ZM231.451 305.04C234.871 305.04 237.427 306.516 238.579 307.488L239.443 304.5C237.967 303.42 234.871 301.98 231.523 301.98C223.999 301.98 219.103 307.704 219.103 315.156C219.103 321.6 223.855 327.54 231.487 327.54C235.375 327.54 238.183 326.208 240.487 324.048V313.932H230.479V316.884H237.031V322.716C236.023 323.904 234.079 324.48 231.667 324.48C226.375 324.48 222.631 320.7 222.631 315.012C222.631 308.244 226.843 305.04 231.451 305.04ZM259.314 319.08C259.314 314.076 256.29 310.368 251.61 310.368C247.362 310.368 244.194 314.04 244.194 319.08C244.194 324.012 247.506 327.504 251.754 327.504C255.93 327.504 259.314 324.012 259.314 319.08ZM256.002 319.044C256.002 322.608 254.166 324.84 251.754 324.84C249.162 324.84 247.506 322.536 247.506 319.044C247.506 315.588 249.162 313.032 251.61 313.032C254.31 313.032 256.002 315.48 256.002 319.044ZM275.314 325.524C274.594 325.128 273.874 324.264 273.874 323.04V315.624C273.874 311.88 271.174 310.368 268.474 310.368C265.918 310.368 264.01 311.268 262.498 312.168L263.578 314.58C265.09 313.572 266.458 312.996 267.862 312.996C269.23 312.996 270.85 313.788 270.85 316.164V317.748C270.058 317.64 268.978 317.568 268.258 317.568C263.29 317.568 261.598 320.304 261.598 322.68C261.598 325.74 263.938 327.504 266.53 327.504C268.33 327.504 270.094 326.748 271.21 325.272H271.354C271.714 326.388 272.398 327.072 273.118 327.54L275.314 325.668V325.524ZM270.85 322.752C270.238 324.048 268.834 324.876 267.178 324.876C265.774 324.876 264.694 324.156 264.694 322.644C264.694 321.024 265.954 319.872 268.222 319.872C269.122 319.872 270.166 319.98 270.85 320.088V322.752ZM278.958 302.52V327H282.198V302.088L278.958 302.52ZM286.174 316.848V319.872H295.534V316.848H286.174ZM303.161 324.048V305.472H306.797C311.189 305.472 315.833 308.208 315.833 314.904C315.833 320.412 312.485 324.048 306.833 324.048H303.161ZM306.689 327C314.069 327 319.361 322.392 319.361 314.976C319.361 307.344 313.853 302.52 306.653 302.52H299.777V327H306.689ZM323.606 311.124V327H326.846V310.692L323.606 311.124ZM323.066 304.608C323.066 305.796 324.038 306.768 325.226 306.768C326.414 306.768 327.386 305.796 327.386 304.608C327.386 303.42 326.414 302.448 325.226 302.448C324.038 302.448 323.066 303.42 323.066 304.608ZM339.607 310.584C337.627 310.62 335.539 312.276 334.675 314.22H334.423L334.135 310.872H331.363V327H334.603V318.972C335.179 316.308 337.231 314.22 339.319 313.968H340.471V310.584H339.607ZM355.107 319.836C355.431 318.828 355.467 317.568 355.467 316.848C355.467 313.248 353.091 310.368 349.239 310.368C345.027 310.368 341.823 314.076 341.823 319.368C341.823 325.128 345.243 327.504 349.131 327.504C351.363 327.504 353.307 326.784 354.495 325.668L353.883 323.076H353.775C352.731 324.084 351.003 324.804 349.599 324.804C347.151 324.804 345.135 323.616 345.135 319.836H355.107ZM345.279 317.532C345.351 314.976 346.935 313.032 349.167 313.032C351.003 313.032 352.695 314.688 352.263 317.532H345.279ZM370.558 312.096C369.118 311.016 367.894 310.368 365.662 310.368C361.63 310.368 358.03 314.184 358.03 319.44C358.03 324.228 361.09 327.504 365.518 327.504C367.354 327.504 369.19 326.712 370.306 325.776L369.586 323.256C368.614 324.012 367.354 324.732 365.734 324.732C363.286 324.732 361.342 323.148 361.342 319.368C361.342 315.588 363.358 313.104 365.95 313.104C367.318 313.104 368.47 313.68 369.478 314.58L370.558 312.096ZM375.315 306.192V310.692L372.075 311.916V313.392H375.315V327H378.555V313.392H382.335V310.872H378.555V305.256L375.315 306.192ZM397.224 319.836C397.548 318.828 397.584 317.568 397.584 316.848C397.584 313.248 395.208 310.368 391.356 310.368C387.144 310.368 383.94 314.076 383.94 319.368C383.94 325.128 387.36 327.504 391.248 327.504C393.48 327.504 395.424 326.784 396.612 325.668L396 323.076H395.892C394.848 324.084 393.12 324.804 391.716 324.804C389.268 324.804 387.252 323.616 387.252 319.836H397.224ZM387.396 317.532C387.468 314.976 389.052 313.032 391.284 313.032C393.12 313.032 394.812 314.688 394.38 317.532H387.396ZM411.487 325.452L412.171 327H414.547V302.088L411.307 302.52V311.484H411.127C410.407 310.872 409.327 310.368 407.815 310.368C403.027 310.368 400.147 314.472 400.147 319.368C400.147 324.588 402.811 327.504 406.483 327.504C408.211 327.504 409.687 326.964 411.343 325.452H411.487ZM407.383 324.624C405.115 324.624 403.459 322.824 403.459 319.152C403.459 315.552 405.079 313.176 407.995 313.176C409.219 313.176 410.479 313.608 411.307 314.472V322.86C410.191 324.12 408.715 324.624 407.383 324.624ZM430.637 324.048V305.472H434.273C438.665 305.472 443.309 308.208 443.309 314.904C443.309 320.412 439.961 324.048 434.309 324.048H430.637ZM434.165 327C441.545 327 446.837 322.392 446.837 314.976C446.837 307.344 441.329 302.52 434.129 302.52H427.253V327H434.165ZM462.755 319.836C463.079 318.828 463.115 317.568 463.115 316.848C463.115 313.248 460.739 310.368 456.887 310.368C452.675 310.368 449.471 314.076 449.471 319.368C449.471 325.128 452.891 327.504 456.779 327.504C459.011 327.504 460.955 326.784 462.143 325.668L461.531 323.076H461.423C460.379 324.084 458.651 324.804 457.247 324.804C454.799 324.804 452.783 323.616 452.783 319.836H462.755ZM452.927 317.532C452.999 314.976 454.583 313.032 456.815 313.032C458.651 313.032 460.343 314.688 459.911 317.532H452.927ZM476.334 312.456C474.93 311.304 472.95 310.368 470.898 310.368C467.586 310.368 465.678 312.456 465.678 314.832C465.678 317.064 467.046 318.18 469.746 319.656C471.726 320.736 473.526 321.708 473.526 323.004C473.526 324.156 472.41 324.84 470.97 324.84C469.206 324.84 467.838 324.084 466.434 323.112L465.462 325.524C466.65 326.604 468.81 327.504 471.078 327.504C473.958 327.504 476.586 325.992 476.586 323.004C476.586 320.988 475.578 319.62 472.554 317.856C470.358 316.56 468.738 315.804 468.738 314.58C468.738 313.752 469.494 312.996 471.006 312.996C472.41 312.996 473.778 313.644 475.326 314.832L476.334 312.456ZM480.262 311.124V327H483.502V310.692L480.262 311.124ZM479.722 304.608C479.722 305.796 480.694 306.768 481.882 306.768C483.07 306.768 484.042 305.796 484.042 304.608C484.042 303.42 483.07 302.448 481.882 302.448C480.694 302.448 479.722 303.42 479.722 304.608ZM494.535 324.264C492.267 324.264 490.611 322.968 490.611 319.548C490.611 315.948 492.231 313.176 495.147 313.176C496.515 313.176 497.739 313.824 498.459 314.472V322.788C497.379 323.688 495.867 324.264 494.535 324.264ZM489.711 330.24L488.451 332.796C489.783 333.84 491.511 334.452 493.743 334.452C498.171 334.452 501.699 331.104 501.699 326.748V310.908L500.187 310.656L498.999 311.988H498.819C497.703 310.872 496.299 310.368 494.967 310.368C490.179 310.368 487.299 314.472 487.299 319.368C487.299 324.372 489.747 327.144 493.635 327.144C494.679 327.144 496.551 327.072 498.279 325.344H498.459V326.856C498.423 330.312 496.191 331.572 493.707 331.572C492.195 331.572 491.079 331.248 489.783 330.24H489.711ZM508.584 312.348L508.332 310.872H505.668V327H508.908V315.3C509.736 314.148 511.284 313.248 512.76 313.248C514.271 313.248 515.748 313.86 515.748 316.596V327H518.988V315.768C518.988 312.024 516.864 310.368 514.02 310.368C512.004 310.368 510.276 311.088 508.764 312.348H508.584ZM546.067 309.576C546.067 305.22 542.719 302.52 537.751 302.52H531.703V327H535.087V317.172H537.427C542.575 317.208 546.067 314.184 546.067 309.576ZM542.539 309.648C542.539 313.104 540.235 314.328 537.607 314.328H535.087V305.364H537.787C540.667 305.364 542.539 306.984 542.539 309.648ZM557.822 310.584C555.842 310.62 553.754 312.276 552.89 314.22H552.638L552.35 310.872H549.578V327H552.818V318.972C553.394 316.308 555.446 314.22 557.534 313.968H558.686V310.584H557.822ZM575.157 319.08C575.157 314.076 572.133 310.368 567.453 310.368C563.205 310.368 560.037 314.04 560.037 319.08C560.037 324.012 563.349 327.504 567.597 327.504C571.773 327.504 575.157 324.012 575.157 319.08ZM571.845 319.044C571.845 322.608 570.009 324.84 567.597 324.84C565.005 324.84 563.349 322.536 563.349 319.044C563.349 315.588 565.005 313.032 567.453 313.032C570.153 313.032 571.845 315.48 571.845 319.044ZM578.946 327.396C578.946 330.6 578.334 332.436 576.966 333.48V334.452L579.99 334.02C581.178 332.76 582.186 331.068 582.186 327.612V310.692L578.946 311.124V327.396ZM578.406 304.608C578.406 305.796 579.378 306.768 580.566 306.768C581.754 306.768 582.726 305.796 582.726 304.608C582.726 303.42 581.754 302.448 580.566 302.448C579.378 302.448 578.406 303.42 578.406 304.608ZM599.267 319.836C599.591 318.828 599.627 317.568 599.627 316.848C599.627 313.248 597.251 310.368 593.399 310.368C589.187 310.368 585.983 314.076 585.983 319.368C585.983 325.128 589.403 327.504 593.291 327.504C595.523 327.504 597.467 326.784 598.655 325.668L598.043 323.076H597.935C596.891 324.084 595.163 324.804 593.759 324.804C591.311 324.804 589.295 323.616 589.295 319.836H599.267ZM589.439 317.532C589.511 314.976 591.095 313.032 593.327 313.032C595.163 313.032 596.855 314.688 596.423 317.532H589.439ZM614.718 312.096C613.278 311.016 612.054 310.368 609.822 310.368C605.79 310.368 602.19 314.184 602.19 319.44C602.19 324.228 605.25 327.504 609.678 327.504C611.514 327.504 613.35 326.712 614.466 325.776L613.746 323.256C612.774 324.012 611.514 324.732 609.894 324.732C607.446 324.732 605.502 323.148 605.502 319.368C605.502 315.588 607.518 313.104 610.11 313.104C611.478 313.104 612.63 313.68 613.638 314.58L614.718 312.096ZM619.475 306.192V310.692L616.235 311.916V313.392H619.475V327H622.715V313.392H626.495V310.872H622.715V305.256L619.475 306.192Z" fill="white"/>
</g>
<defs>
<filter id="filter0_dd" x="117" y="109" width="463" height="164" filterUnits="userSpaceOnUse" color-interpolation-filters="sRGB">
<feFlood flood-opacity="0" result="BackgroundImageFix"/>
<feColorMatrix in="SourceAlpha" type="matrix" values="0 0 0 0 0 0 0 0 0 0 0 0 0 0 0 0 0 0 127 0"/>
<feOffset dx="-4" dy="-4"/>
<feGaussianBlur stdDeviation="5"/>
<feColorMatrix type="matrix" values="0 0 0 0 0.620238 0 0 0 0 0.524028 0 0 0 0 0.816667 0 0 0 1 0"/>
<feBlend mode="normal" in2="BackgroundImageFix" result="effect1_dropShadow"/>
<feColorMatrix in="SourceAlpha" type="matrix" values="0 0 0 0 0 0 0 0 0 0 0 0 0 0 0 0 0 0 127 0"/>
<feOffset dx="4" dy="4"/>
<feGaussianBlur stdDeviation="5"/>
<feColorMatrix type="matrix" values="0 0 0 0 0.417185 0 0 0 0 0.337847 0 0 0 0 0.579167 0 0 0 1 0"/>
<feBlend mode="normal" in2="effect1_dropShadow" result="effect2_dropShadow"/>
<feBlend mode="normal" in="SourceGraphic" in2="effect2_dropShadow" result="shape"/>
</filter>
<filter id="filter1_d" x="71.9882" y="301.8" width="562.507" height="40.652" filterUnits="userSpaceOnUse" color-interpolation-filters="sRGB">
<feFlood flood-opacity="0" result="BackgroundImageFix"/>
<feColorMatrix in="SourceAlpha" type="matrix" values="0 0 0 0 0 0 0 0 0 0 0 0 0 0 0 0 0 0 127 0"/>
<feOffset dx="4" dy="4"/>
<feGaussianBlur stdDeviation="2"/>
<feColorMatrix type="matrix" values="0 0 0 0 0 0 0 0 0 0 0 0 0 0 0 0 0 0 0.25 0"/>
<feBlend mode="normal" in2="BackgroundImageFix" result="effect1_dropShadow"/>
<feBlend mode="normal" in="SourceGraphic" in2="effect1_dropShadow" result="shape"/>
</filter>
</defs>
</svg>
