<?xml version="1.0" encoding="UTF-8"?>
<svg data-bbox="0 0 697 381" xmlns:xlink="http://www.w3.org/1999/xlink" xmlns="http://www.w3.org/2000/svg" viewBox="0 0 697 381" height="381" width="697" data-type="ugc">
    <g>
        <path fill="#D7D7D7" d="M697 40v301c0 22.091-17.909 40-40 40H40c-22.091 0-40-17.909-40-40V40C0 17.909 17.909 0 40 0h617c22.091 0 40 17.909 40 40z"/>
        <g filter="url(#5f1d811d-ab70-4d26-ab4d-b343bec2ee99)">
            <path fill="#000000" d="M182.513 327h3.6l-11.088-25.2h-.72L163.289 327h3.6l2.628-6.372h10.296l2.7 6.372zm-7.992-18.36h.252l3.816 9.036h-7.848l3.78-9.036zm25.845 3.456c-1.44-1.08-2.664-1.728-4.896-1.728-4.032 0-7.632 3.816-7.632 9.072 0 4.788 3.06 8.064 7.488 8.064 1.836 0 3.672-.792 4.788-1.728l-.72-2.52c-.972.756-2.232 1.476-3.852 1.476-2.448 0-4.392-1.584-4.392-5.364s2.016-6.264 4.608-6.264c1.368 0 2.52.576 3.528 1.476l1.08-2.484zm15.71 13.428a2.822 2.822 0 01-1.44-2.484v-7.416c0-3.744-2.7-5.256-5.4-5.256-2.556 0-4.464.9-5.976 1.8l1.08 2.412c1.512-1.008 2.88-1.584 4.284-1.584 1.368 0 2.988.792 2.988 3.168v1.584a21.908 21.908 0 00-2.592-.18c-4.968 0-6.66 2.736-6.66 5.112 0 3.06 2.34 4.824 4.932 4.824 1.8 0 3.564-.756 4.68-2.232h.144c.36 1.116 1.044 1.8 1.764 2.268l2.196-1.872v-.144zm-4.464-2.772c-.612 1.296-2.016 2.124-3.672 2.124-1.404 0-2.484-.72-2.484-2.232 0-1.62 1.26-2.772 3.528-2.772.9 0 1.944.108 2.628.216v2.664zm18.187 2.7l.684 1.548h2.376v-24.912l-3.24.432v8.964h-.18c-.72-.612-1.8-1.116-3.312-1.116-4.788 0-7.668 4.104-7.668 9 0 5.22 2.664 8.136 6.336 8.136 1.728 0 3.204-.54 4.86-2.052h.144zm-4.104-.828c-2.268 0-3.924-1.8-3.924-5.472 0-3.6 1.62-5.976 4.536-5.976 1.224 0 2.484.432 3.312 1.296v8.388a5.203 5.203 0 01-3.924 1.764zm23.697-4.788c.324-1.008.36-2.268.36-2.988 0-3.6-2.376-6.48-6.228-6.48-4.212 0-7.416 3.708-7.416 9 0 5.76 3.42 8.136 7.308 8.136 2.232 0 4.176-.72 5.364-1.836l-.612-2.592h-.108c-1.044 1.008-2.772 1.728-4.176 1.728-2.448 0-4.464-1.188-4.464-4.968h9.972zm-9.828-2.304c.072-2.556 1.656-4.5 3.888-4.5 1.836 0 3.528 1.656 3.096 4.5h-6.984zm25.891-4.824c-.9-1.476-2.412-2.34-4.284-2.34-2.052 0-3.744.9-5.04 1.98h-.18l-.252-1.476h-2.664V327h3.24v-11.772c.936-1.188 2.268-1.98 3.6-1.98 1.332 0 3.06.612 3.06 2.988V327h3.24v-11.772c.828-.972 2.232-1.98 3.6-1.98 1.476 0 3.06.612 3.06 2.988V327h3.24v-11.376c0-3.744-2.592-5.256-5.004-5.256-2.052 0-3.528.72-5.436 2.34h-.18zm15.12-1.584V327h3.24v-16.308l-3.24.432zm-.54-6.516c0 1.188.972 2.16 2.16 2.16 1.188 0 2.16-.972 2.16-2.16 0-1.188-.972-2.16-2.16-2.16-1.188 0-2.16.972-2.16 2.16zm20.105 7.488c-1.44-1.08-2.664-1.728-4.896-1.728-4.032 0-7.632 3.816-7.632 9.072 0 4.788 3.06 8.064 7.488 8.064 1.836 0 3.672-.792 4.788-1.728l-.72-2.52c-.972.756-2.232 1.476-3.852 1.476-2.448 0-4.392-1.584-4.392-5.364s2.016-6.264 4.608-6.264c1.368 0 2.52.576 3.528 1.476l1.08-2.484zm14.728-9.576h-3.384V327h13.824v-2.952h-10.44V302.52zm26 17.316c.324-1.008.36-2.268.36-2.988 0-3.6-2.376-6.48-6.228-6.48-4.212 0-7.416 3.708-7.416 9 0 5.76 3.42 8.136 7.308 8.136 2.232 0 4.176-.72 5.364-1.836l-.612-2.592h-.108c-1.044 1.008-2.772 1.728-4.176 1.728-2.448 0-4.464-1.188-4.464-4.968h9.972zm-9.828-2.304c.072-2.556 1.656-4.5 3.888-4.5 1.836 0 3.528 1.656 3.096 4.5h-6.984zm26.224 7.992a2.822 2.822 0 01-1.44-2.484v-7.416c0-3.744-2.7-5.256-5.4-5.256-2.556 0-4.464.9-5.976 1.8l1.08 2.412c1.512-1.008 2.88-1.584 4.284-1.584 1.368 0 2.988.792 2.988 3.168v1.584a21.908 21.908 0 00-2.592-.18c-4.968 0-6.66 2.736-6.66 5.112 0 3.06 2.34 4.824 4.932 4.824 1.8 0 3.564-.756 4.68-2.232h.144c.36 1.116 1.044 1.8 1.764 2.268l2.196-1.872v-.144zm-4.464-2.772c-.612 1.296-2.016 2.124-3.672 2.124-1.404 0-2.484-.72-2.484-2.232 0-1.62 1.26-2.772 3.528-2.772.9 0 1.944.108 2.628.216v2.664zm10.483-10.404l-.252-1.476h-2.664V327h3.24v-11.7c.828-1.152 2.376-2.052 3.852-2.052 1.512 0 2.988.612 2.988 3.348V327h3.24v-11.232c0-3.744-2.124-5.4-4.968-5.4-2.016 0-3.744.72-5.256 1.98h-.18zm42.343-9.828h-3.384v15.336c0 4.86-2.592 6.696-6.228 6.696-3.744 0-6.228-1.908-6.228-6.696V302.52h-3.384v15.948c0 4.5 2.088 9.072 9.612 9.072 6.624 0 9.612-4.536 9.612-9.252V302.52zm3.111 24.48h3.816l6.48-9.72 6.444 9.72h3.924l-8.388-12.42 8.172-12.06h-3.816l-6.264 9.396-6.228-9.396h-3.924l8.172 12.132L408.737 327zm46.029-17.424c0-4.356-3.348-7.056-8.316-7.056h-6.048V327h3.384v-9.828h2.34c5.148.036 8.64-2.988 8.64-7.596zm-3.528.072c0 3.456-2.304 4.68-4.932 4.68h-2.52v-8.964h2.7c2.88 0 4.752 1.62 4.752 4.284zm15.283.936c-1.98.036-4.068 1.692-4.932 3.636h-.252l-.288-3.348h-2.772V327h3.24v-8.028c.576-2.664 2.628-4.752 4.716-5.004h1.152v-3.384h-.864zm17.336 8.496c0-5.004-3.024-8.712-7.704-8.712-4.248 0-7.416 3.672-7.416 8.712 0 4.932 3.312 8.424 7.56 8.424 4.176 0 7.56-3.492 7.56-8.424zm-3.312-.036c0 3.564-1.836 5.796-4.248 5.796-2.592 0-4.248-2.304-4.248-5.796 0-3.456 1.656-6.012 4.104-6.012 2.7 0 4.392 2.448 4.392 6.012zm7.1 8.352c0 3.204-.612 5.04-1.98 6.084v.972l3.024-.432c1.188-1.26 2.196-2.952 2.196-6.408v-16.92l-3.24.432v16.272zm-.54-22.788c0 1.188.972 2.16 2.16 2.16 1.188 0 2.16-.972 2.16-2.16 0-1.188-.972-2.16-2.16-2.16-1.188 0-2.16.972-2.16 2.16zm20.861 15.228c.324-1.008.36-2.268.36-2.988 0-3.6-2.376-6.48-6.228-6.48-4.212 0-7.416 3.708-7.416 9 0 5.76 3.42 8.136 7.308 8.136 2.232 0 4.176-.72 5.364-1.836l-.612-2.592h-.108c-1.044 1.008-2.772 1.728-4.176 1.728-2.448 0-4.464-1.188-4.464-4.968h9.972zm-9.828-2.304c.072-2.556 1.656-4.5 3.888-4.5 1.836 0 3.528 1.656 3.096 4.5h-6.984zm25.279-5.436c-1.44-1.08-2.664-1.728-4.896-1.728-4.032 0-7.632 3.816-7.632 9.072 0 4.788 3.06 8.064 7.488 8.064 1.836 0 3.672-.792 4.788-1.728l-.72-2.52c-.972.756-2.232 1.476-3.852 1.476-2.448 0-4.392-1.584-4.392-5.364s2.016-6.264 4.608-6.264c1.368 0 2.52.576 3.528 1.476l1.08-2.484zm4.758-5.904v4.5l-3.24 1.224v1.476h3.24V327h3.24v-13.608h3.78v-2.52h-3.78v-5.616l-3.24.936z"/>
        </g>
        <path fill="url(#d82f3b84-2f9d-4f32-8aa0-fa96d739f0e8)" d="M537 0v280H161V0h376z"/>
        <defs fill="none">
            <filter color-interpolation-filters="sRGB" filterUnits="userSpaceOnUse" height="40.652" width="379.906" y="301.8" x="163.289" id="5f1d811d-ab70-4d26-ab4d-b343bec2ee99">
                <feFlood result="BackgroundImageFix" flood-opacity="0"/>
                <feColorMatrix values="0 0 0 0 0 0 0 0 0 0 0 0 0 0 0 0 0 0 127 0" in="SourceAlpha"/>
                <feOffset dy="4" dx="4"/>
                <feGaussianBlur stdDeviation="2"/>
                <feColorMatrix values="0 0 0 0 0 0 0 0 0 0 0 0 0 0 0 0 0 0 0.25 0"/>
                <feBlend result="effect1_dropShadow" in2="BackgroundImageFix"/>
                <feBlend result="shape" in2="effect1_dropShadow" in="SourceGraphic"/>
            </filter>
            <pattern height="1" width="1" patternContentUnits="objectBoundingBox" id="d82f3b84-2f9d-4f32-8aa0-fa96d739f0e8">
                <use transform="scale(.00134 .0018)" xlink:href="#0b4d6125-357e-4fc3-8fc6-eadbf5d6fae7"/>
            </pattern>
        </defs>
    </g>
</svg>
